<svg xmlns="http://www.w3.org/2000/svg" viewBox="0 0 1920 1080"><defs><style>.cls-1{isolation:isolate;}.cls-2{fill:#8acdde;}.cls-2,.cls-3{mix-blend-mode:multiply;}.cls-3{fill:#b7c704;}</style></defs><title>delpin-sublogo</title><g class="cls-1"><g id="portada_1" data-name="portada 1"><g id="Sub-Marca"><path id="D" class="cls-2" d="M1150.88,690h-331a10.34,10.34,0,0,1-10.34-10.34V183.1a10.34,10.34,0,0,1,10.34-10.34h331c142.83,0,258.62,115.79,258.62,258.62h0C1409.5,574.21,1293.71,690,1150.88,690Z"></path><path id="G" class="cls-3" d="M1099.16,907.24h-331c-142.83,0-258.62-115.79-258.62-258.62h0C509.5,505.79,625.29,390,768.12,390h331a10.34,10.34,0,0,1,10.34,10.34V896.9A10.34,10.34,0,0,1,1099.16,907.24Z"></path></g></g></g></svg>